<?xml version="1.0" encoding="utf-8"?>
<!-- Generator: Adobe Illustrator 24.0.1, SVG Export Plug-In . SVG Version: 6.00 Build 0)  -->
<svg version="1.1" id="Layer_1" xmlns="http://www.w3.org/2000/svg" xmlns:xlink="http://www.w3.org/1999/xlink" x="0px" y="0px"
	 viewBox="0 0 1080 1080" style="enable-background:new 0 0 1080 1080;" xml:space="preserve">
<style type="text/css">
	.st0{fill:#800000;}
	.st1{fill:#040302;}
	.st2{fill:#BB7927;}
	.st3{fill:#FFBD11;}
	.st4{fill:#EEDC92;}
</style>
<path class="st0" d="M246.75,695.43v34.03c0,10.93,9.07,18.57,20.03,19.98l48.65,6.09c5.32,19.97,13.3,38.86,23.31,56.19
	l-30.04,38.86c-6.73,8.58-7.67,20.44,0,28.09l9.23,9.21l29.41,29.5l9.23,9.05c7.82,7.8,19.56,6.71,28.31,0l38.8-29.97
	c17.52,9.99,36.29,17.95,56.32,23.26l6.26,48.7c1.41,10.77,8.91,19.82,19.87,19.82h67.74c10.95,0,18.62-9.05,20.03-19.82l6.1-48.7
	c20.02-5.31,38.95-13.27,56.32-23.26l38.96,29.97c8.6,6.71,20.49,7.8,28.16,0l9.23-9.05l29.57-29.5l9.07-9.21
	c7.82-7.65,6.73-19.51,0-28.09l-30.04-38.86c10.02-17.32,17.99-36.21,23.31-56.19l48.81-6.09c10.79-1.4,19.87-9.05,19.87-19.98
	v-34.03H712.17c0,0.11,0,0.22,0,0.33c0,94.73-77.13,171.68-172.09,171.68c-95.12,0-172.24-76.94-172.24-171.68c0-0.11,0-0.22,0-0.33
	H246.75z"/>
<path class="st0" d="M451.77,695.43c0,0.11,0,0.22,0,0.33c0,24.19,9.86,46.2,25.81,62.12c15.96,16.08,38.02,25.91,62.42,25.91
	c24.25,0,46.31-9.83,62.26-25.91c16.11-15.92,25.97-37.92,25.97-62.12c0-0.11,0-0.22,0-0.33h-41.93c0,0.11,0,0.22,0,0.32
	c0,12.79-5.16,24.35-13.46,32.77c-8.45,8.27-20.02,13.42-32.85,13.42c-12.82,0-24.56-5.15-32.85-13.42
	c-8.45-8.43-13.61-19.97-13.61-32.77c0-0.11,0-0.22,0-0.32H451.77z"/>
<g>
	<path class="st1" d="M832.89,635.97c0,8.75,0,17.51,0,26.26c-4.47,7.12-11.15,8.31-19.07,8.3c-182.26-0.15-364.52-0.11-546.78-0.11
		c-1.9,0-3.81,0.06-5.71-0.05c-7.89-0.45-12.68-5.06-13.01-13c-0.26-6.27-0.37-12.58,0.09-18.82c0.64-8.76,5.18-16.13,13.7-17.55
		c8.21-1.37,8.26-5.6,7.75-11.51c-0.08-0.94-0.02-1.9,0-2.85c0.27-12.4,8.33-20.73,20.66-21.11c6.65-0.2,13.32-0.2,19.97,0
		c3.14,0.1,4.46-0.68,4.26-4.07c-0.27-4.55-0.15-9.13-0.04-13.69c0.16-6.5,2.23-13.04,8.5-14.89c7.7-2.27,7.73-7,7.25-12.97
		c-0.2-2.46,0.11-4.95-0.06-7.41c-0.45-6.25,2.23-10.17,8.33-11.7c7.55,2.38,8.83,4.14,8.86,12.31c0.02,4.56,0.14,9.13-0.05,13.69
		c-0.12,2.76,0.84,3.63,3.56,3.53c4.94-0.19,9.89-0.05,14.83-0.05c9.06,0,9.06,0,9.06-8.77c0-51.34,0-102.68,0-154.01
		c0-2.85-0.13-5.71,0.04-8.55c0.14-2.49-0.78-3.31-3.27-3.25c-5.7,0.15-11.44,0.41-17.1-0.06c-5.47-0.45-7.3,0.83-7.24,6.89
		c0.36,34.6,0.18,69.21,0.17,103.81c0,7.72-1.72,9.96-8.76,11.7c-6.86-2.04-8.38-4.05-8.38-11.49
		c-0.02-35.38-0.03-70.75,0.03-106.13c0.01-2.84-0.17-4.54-3.64-5.51c-7.92-2.21-11.84-7.99-12.11-16.61
		c-0.15-4.75-0.17-9.51,0.02-14.26c0.11-2.81-0.96-3.57-3.64-3.52c-6.84,0.13-13.7,0.2-20.54-0.07c-8.7-0.34-14.92-6.34-15.82-14.98
		c-0.25-2.45-0.13-4.94-0.13-7.41c-0.01-10.71,0-10.71-10.54-11.21c-9.96-0.47-14.82-5.37-15.12-15.37
		c-0.11-3.61,0.12-7.23-0.05-10.84c-0.33-7.34,3.04-12.14,9.47-15.41c12.34-6.27,24.56-12.78,36.82-19.21
		c79.27-41.58,158.57-83.09,237.75-124.84c8.43-4.44,15.89-4.56,24.11,0.25c11.13,6.51,22.57,12.48,34,18.46
		c5.48,2.87,8.01,6.77,6.18,12.94c-5.3,5.39-7.72,5.81-14.46,2.19c-11.51-6.18-22.97-12.45-34.46-18.66
		c-1.78-0.96-3.33-2.14-5.73-0.84c-13.61,7.42-27.32,14.65-41,21.95c-1.38,0.6-2.8,1.13-4.13,1.83
		c-75.49,39.6-150.94,79.28-226.54,118.69c-4.65,2.42-5.56,5.45-4.57,9.49c0.99,4.06,4.79,2.02,7.2,2.02
		c154.64,0.13,309.28,0.15,463.92,0.15c2.08,0,4.17-0.18,6.25-0.28c22.63,0.1,45.26,0.21,67.89,0.31c1.56,0.01,3.39,0,3.22-2.17
		c-0.2-2.66,1.47-5.8-1.62-7.84c-1.27-0.83-2.65-1.49-3.99-2.21c-61.51-33.25-123.03-66.49-184.54-99.75
		c-8.19-4.43-9.28-6.54-7.54-14.22c3.81-4.24,8.16-5.04,13.24-2.29c64.51,34.92,129.04,69.82,193.57,104.7
		c4.46,2.41,7.39,5.84,8.11,10.95c-0.54,5.69-0.44,11.39-0.05,17.09c-1.42,8.42-5.49,12.22-14.03,12.86c-2.65,0.2-5.34,0.21-7.99,0
		c-2.72-0.22-3.67,0.68-3.55,3.47c0.2,4.75,0.24,9.52-0.02,14.27c-0.51,9.25-6.88,15.57-16.09,15.92
		c-6.46,0.24-12.94,0.26-19.4,0.02c-3.39-0.13-4.83,0.67-4.57,4.36c0.31,4.54,0.21,9.13,0.04,13.69
		c-0.33,8.53-4.31,14.22-12.34,16.47c-3.26,0.91-3.42,2.41-3.41,5.1c0.06,55.37,0.05,110.75,0.02,166.12c0,2.38,0.03,3.83,3.15,4.71
		c8.34,2.35,12.3,8.08,12.59,16.87c0.13,3.8,0.43,7.66-0.07,11.4c-0.73,5.54,1.65,6.71,6.62,6.35c5.49-0.4,11.03-0.18,16.55-0.07
		c13.45,0.26,21.57,8.42,21.75,21.78c0.04,3.04,0.07,6.09-0.02,9.13c-0.05,1.74,0.28,2.99,2.31,3.15
		C824,620.32,829.65,626.73,832.89,635.97z M735.83,307.13c-2.47-0.09-4.93-0.26-7.4-0.26c-142.52-0.01-285.04-0.01-427.57-0.01
		c-9.11,0-8.79,0.02-9.23,9.39c-0.26,5.48,0.88,7.28,6.95,7.27c143.66-0.21,287.33-0.16,430.99-0.17c2.09,0,4.17-0.16,6.26-0.25
		c16.71,0.08,33.43,0.17,50.14,0.25c1.78,0.01,3.47,0.04,3.42-2.54c-0.08-3.8-0.08-7.6,0-11.4c0.05-2.57-1.63-2.56-3.42-2.55
		C769.26,306.95,752.54,307.04,735.83,307.13z M741.55,618.95c14,0.11,28.01,0.26,42.01,0.33c11.57,0.06,11.49,0.02,10.59-11.83
		c-0.25-3.31-1.65-4.82-4.92-4.8c-15.9,0.11-31.8,0.18-47.71,0.27c-1.89-0.09-3.79-0.26-5.68-0.26
		c-146.84-0.01-293.68-0.01-440.52-0.01c-1.33,0-2.66,0-3.99,0.03c-2.75,0.06-4.22,1.44-4.28,4.23c-0.03,1.9,0.23,3.84-0.08,5.7
		c-0.9,5.46,1.11,6.84,6.67,6.84c147.22-0.17,294.44-0.14,441.66-0.15C737.39,619.29,739.47,619.07,741.55,618.95z M763.23,653.1
		c13.87,0.09,27.75,0.22,41.62,0.27c12.16,0.05,12.08,0.02,11.03-12.1c-0.29-3.34-1.92-4.97-5.01-4.93
		c-15.95,0.18-31.91-0.7-47.85,0.45c-4.37-0.06-8.73-0.17-13.1-0.17c-158.85-0.01-317.7-0.01-476.55,0c-7.97,0-7.36,0.09-8.18,10.35
		c-0.58,7.24,3.32,6.33,7.8,6.33c161.13-0.04,322.27-0.03,483.4-0.04C758.67,653.26,760.95,653.16,763.23,653.1z M392.16,463.04
		c0,27.57,0.05,55.13-0.07,82.7c-0.01,3.07,0.6,4.47,3.82,5.42c7.66,2.25,11.64,7.9,11.96,16.14c0.19,4.75,0.17,9.51,0,14.26
		c-0.1,2.83,0.58,4.1,3.75,3.98c6.27-0.23,12.55-0.27,18.82,0.01c3.53,0.16,4.08-1.35,3.95-4.34c-0.2-4.55-0.12-9.12-0.03-13.69
		c0.15-8.41,4.08-14.07,12.17-16.49c3.07-0.92,3.55-2.27,3.55-5.09c-0.08-55.32-0.08-110.64,0.01-165.97c0-2.91-0.67-4.11-3.64-5.01
		c-8.03-2.42-11.95-8.1-12.09-16.56c-0.08-4.75-0.14-9.51,0.03-14.26c0.09-2.63-0.59-3.75-3.46-3.67
		c-6.46,0.19-12.93,0.23-19.39-0.01c-3.29-0.12-3.74,1.37-3.65,4.08c0.15,4.75,0.19,9.51-0.01,14.26
		c-0.35,8.25-4.32,13.88-12.04,16.07c-3.38,0.96-3.73,2.54-3.72,5.46C392.2,407.91,392.16,435.48,392.16,463.04z M688.97,463.59
		c0-27.57-0.07-55.13,0.09-82.7c0.02-3.5-0.57-5.26-4.32-6.21c-5.74-1.46-9.22-5.62-10.81-11.39c-1.03-3.76-0.69-7.55-0.71-11.34
		c-0.05-11.4-0.02-11.48-11.63-11.36c-4.71,0.05-10.89-2.04-13.75,0.79c-3.13,3.09-0.69,9.35-1.03,14.22
		c-0.07,0.95,0.01,1.9-0.02,2.85c-0.19,8.44-4.08,14.13-12.13,16.53c-3.02,0.9-3.62,2.16-3.61,5.03c0.09,55.32,0.09,110.64,0,165.97
		c0,2.87,0.56,4.16,3.58,5.07c8.07,2.43,11.99,8.09,12.15,16.51c0.08,4.37,0.32,8.77-0.07,13.11c-0.38,4.23,1.31,5.11,5.15,4.89
		c5.5-0.32,11.04-0.37,16.53,0.01c4.23,0.3,5.14-1.38,4.89-5.18c-0.3-4.35-0.21-8.75-0.02-13.11c0.34-8.22,4.32-13.88,11.99-16.12
		c3.26-0.95,3.81-2.41,3.8-5.44C688.92,518.34,688.97,490.96,688.97,463.59z M569.33,463.56c0-27.77-0.06-55.55,0.08-83.32
		c0.02-3.13-0.73-4.49-3.88-5.44c-7.31-2.21-11.26-7.49-11.55-15.18c-0.19-5.13-0.18-10.27-0.07-15.4c0.06-2.6-0.66-3.79-3.51-3.72
		c-6.46,0.16-12.94,0.2-19.4-0.01c-3.17-0.11-3.88,1.21-3.78,4.04c0.16,4.75,0.17,9.51,0,14.26c-0.29,8.36-4.04,13.74-11.89,16.13
		c-3.01,0.92-3.59,2.2-3.59,5.06c0.09,55.36,0.09,110.71,0,166.07c0,2.9,0.65,4.14,3.62,5.06c7.66,2.36,11.48,7.62,11.82,15.59
		c0.21,4.94,0.2,9.89,0.04,14.83c-0.09,2.85,0.66,4.12,3.8,4.01c6.27-0.22,12.56-0.25,18.83,0.01c3.43,0.14,4.18-1.24,4.08-4.32
		c-0.17-5.13-0.15-10.28,0.11-15.4c0.37-7.21,4.18-12.24,10.97-14.4c3.49-1.11,4.45-2.59,4.43-6.24
		C569.24,517.97,569.33,490.76,569.33,463.56z M494.64,462.98c0-27.4-0.08-54.8,0.09-82.2c0.02-3.9-0.86-5.4-5-5.15
		c-5.88,0.35-11.81,0.37-17.69,0c-4.23-0.27-5.1,1.4-4.91,5.2c0.29,5.69,0.08,11.41,0.08,17.12c0,48.9,0.05,97.81-0.09,146.71
		c-0.01,4.3,0.84,6.09,5.54,5.72c5.67-0.44,11.43-0.38,17.11-0.01c4.19,0.27,4.98-1.33,4.96-5.18
		C494.56,517.79,494.64,490.38,494.64,462.98z M586.5,462.99c0,27.4,0.07,54.8-0.08,82.2c-0.02,3.85,0.78,5.43,4.96,5.18
		c6.07-0.36,12.19-0.32,18.26-0.01c3.69,0.19,4.58-1.2,4.36-4.57c-0.25-3.79-0.06-7.61-0.06-11.41c0-51-0.05-101.99,0.08-152.99
		c0.01-4.22-0.71-6.17-5.5-5.78c-5.67,0.46-11.43,0.38-17.11,0.02c-4.15-0.26-5.02,1.27-4.99,5.15
		C586.58,408.19,586.5,435.59,586.5,462.99z M706.14,462.77c0,27.57,0.05,55.14-0.07,82.71c-0.02,3.47,0.51,5.12,4.55,4.89
		c6.25-0.37,12.55-0.26,18.82-0.03c3.21,0.12,4.18-0.81,4.17-4.1c-0.1-55.52-0.1-111.04,0-166.56c0.01-3.41-1.18-4.12-4.26-4.01
		c-6.08,0.21-12.18,0.32-18.25-0.03c-3.99-0.23-5.09,0.94-5.06,4.99C706.23,408.01,706.14,435.39,706.14,462.77z M361.67,567.42
		c-5.51,0-11.02,0-16.54,0c-13.77,0-13.62,0-13.39,13.77c0.06,3.68,1.39,4.4,4.69,4.37c13.68-0.15,27.37-0.06,41.06-0.06
		c13.73,0,13.56,0,13.39-13.85c-0.05-3.77-1.45-4.35-4.69-4.28C378.02,567.54,369.85,567.42,361.67,567.42z M719.61,585.49
		c5.51,0,11.02,0,16.54,0c13.41,0,13.26,0,13.24-13.43c-0.01-3.79-1.12-4.78-4.83-4.73c-13.68,0.21-27.37,0.08-41.06,0.08
		c-13.7,0-13.59,0-13.21,13.91c0.09,3.22,1,4.29,4.24,4.22C702.88,585.36,711.25,585.49,719.61,585.49z M361.21,358.57
		c5.51,0,11.02,0,16.53,0c13.36,0,13.36,0,13.04-13.43c-0.01-0.57-0.04-1.14,0-1.71c0.15-2.26-1.04-2.94-3.12-2.93
		c-17.48,0.03-34.95,0.04-52.43-0.01c-2.38-0.01-3.83,0.85-3.32,3.29c1.02,4.88-2.57,10.42,2.03,14.68
		c0.62,0.57,2.21,0.11,3.35,0.11C345.25,358.58,353.23,358.57,361.21,358.57z M719.78,358.57c5.51,0,11.02,0,16.53,0
		c13.17,0,12.95,0,13.1-12.92c0.05-4.56-1.64-5.28-5.63-5.21c-13.48,0.22-26.97,0.08-40.46,0.08c-13.28,0-13.15,0-13.04,13.6
		c0.03,3.44,0.85,4.64,4.44,4.53C703.06,358.4,711.43,358.57,719.78,358.57z M480.36,358.57c5.51,0,11.03,0,16.54,0
		c13.47,0,13.32,0,13.26-13.28c-0.02-3.72-1.02-4.9-4.81-4.85c-13.49,0.21-26.99,0.08-40.49,0.08c-13.95,0-13.85,0-13.45,14.26
		c0.08,2.97,0.84,3.92,3.86,3.85C463.62,358.44,471.99,358.57,480.36,358.57z M599.99,358.57c5.51,0,11.03,0,16.54,0
		c13.34,0,13.14,0,13.24-13.26c0.03-4.28-1.54-4.92-5.28-4.86c-13.3,0.2-26.61,0.08-39.92,0.08c-14.18,0-14.08,0-13.57,14.24
		c0.11,2.96,0.91,3.92,3.9,3.86C583.26,358.45,591.62,358.57,599.99,358.57z M481.19,567.42c-5.52,0-11.03,0-16.55,0
		c-13.58,0-13.42,0-13.26,13.8c0.04,3.72,1.35,4.36,4.65,4.32c13.5-0.16,27-0.07,40.51-0.07c13.86,0,13.74,0,13.61-13.64
		c-0.03-3.43-0.84-4.62-4.43-4.5C497.55,567.61,489.36,567.42,481.19,567.42z M600.98,567.42c-5.52,0-11.03,0-16.55,0
		c-13.82,0-13.7,0-13.45,13.66c0.06,3.53,1.15,4.51,4.59,4.47c13.5-0.17,27-0.07,40.51-0.07c14.48,0,14.39,0,13.64-14.64
		c-0.14-2.79-1.01-3.51-3.65-3.47C617.72,567.51,609.35,567.42,600.98,567.42z"/>
	<path class="st2" d="M832.89,294.57c-0.37-0.1-0.65-0.3-0.86-0.63c-0.38-5.71-0.48-11.41,0.05-17.1c0.19-0.29,0.46-0.47,0.8-0.55
		C832.89,282.39,832.89,288.48,832.89,294.57z"/>
	<path class="st3" d="M743.74,289.37c-2.08,0.1-4.17,0.28-6.25,0.28c-154.64-0.01-309.28-0.02-463.92-0.15
		c-2.41,0-6.21,2.03-7.2-2.02c-0.99-4.04-0.07-7.07,4.57-9.49c75.6-39.4,151.05-79.08,226.54-118.69c1.33-0.7,2.75-1.22,4.13-1.83
		c16.99,9.25,33.97,18.53,50.98,27.75c32.52,17.62,65.05,35.25,97.61,52.81c26.39,14.23,52.91,28.2,79.17,42.66
		C734.23,283.36,739.89,284.94,743.74,289.37z"/>
	<path class="st3" d="M743.74,289.37c-3.85-4.43-9.51-6.01-14.38-8.69c-26.26-14.45-52.79-28.43-79.17-42.66
		c-32.56-17.56-65.08-35.18-97.61-52.81c-17.01-9.22-33.99-18.5-50.98-27.75c13.68-7.3,27.39-14.53,41-21.95
		c2.39-1.3,3.94-0.13,5.73,0.84c11.49,6.21,22.96,12.48,34.46,18.66c6.73,3.62,9.15,3.2,14.46-2.19
		c6.64,3.55,13.28,7.11,19.93,10.67c-1.74,7.68-0.65,9.8,7.54,14.22c61.51,33.26,123.02,66.5,184.54,99.75
		c1.34,0.72,2.72,1.38,3.99,2.21c3.09,2.03,1.42,5.18,1.62,7.84c0.16,2.17-1.66,2.17-3.22,2.17
		C789,289.58,766.37,289.47,743.74,289.37z"/>
	<path class="st3" d="M763.23,653.1c-2.28,0.05-4.56,0.16-6.84,0.16c-161.13,0.01-322.27,0-483.4,0.04c-4.48,0-8.38,0.91-7.8-6.33
		c0.82-10.26,0.21-10.35,8.18-10.35c158.85-0.01,317.7-0.01,476.55,0c4.37,0,8.73,0.11,13.1,0.17
		C763.09,642.23,763.16,647.66,763.23,653.1z"/>
	<path class="st4" d="M741.55,618.95c-2.08,0.12-4.16,0.34-6.24,0.34c-147.22,0.02-294.44-0.02-441.66,0.15
		c-5.56,0.01-7.57-1.38-6.67-6.84c0.31-1.85,0.04-3.8,0.08-5.7c0.05-2.78,1.53-4.17,4.28-4.23c1.33-0.03,2.66-0.03,3.99-0.03
		c146.84,0,293.68,0,440.52,0.01c1.89,0,3.79,0.17,5.68,0.26C741.54,608.27,741.54,613.61,741.55,618.95z"/>
	<path class="st4" d="M735.83,323.09c-2.09,0.09-4.17,0.25-6.26,0.25c-143.66,0.01-287.33-0.04-430.99,0.17
		c-6.06,0.01-7.21-1.79-6.95-7.27c0.44-9.37,0.12-9.39,9.23-9.39c142.52,0,285.04,0,427.57,0.01c2.47,0,4.93,0.17,7.4,0.26
		C735.83,312.45,735.83,317.77,735.83,323.09z"/>
	<path class="st4" d="M338.74,520.79c0.03-7.59,0.06-15.17,0.09-22.76c7.04-1.74,8.76-3.97,8.76-11.7
		c0.02-34.61,0.19-69.21-0.17-103.81c-0.06-6.06,1.77-7.35,7.24-6.89c5.67,0.47,11.4,0.21,17.1,0.06c2.49-0.07,3.41,0.76,3.27,3.25
		c-0.16,2.84-0.04,5.7-0.04,8.55c0,51.34,0,102.68,0,154.01c0,8.77,0,8.77-9.06,8.77c-4.94,0-9.89-0.14-14.83,0.05
		c-2.72,0.1-3.68-0.77-3.56-3.53c0.19-4.56,0.07-9.12,0.05-13.69C347.57,524.93,346.3,523.17,338.74,520.79z"/>
	<path class="st4" d="M494.64,462.98c0,27.4-0.07,54.8,0.08,82.2c0.02,3.85-0.76,5.45-4.96,5.18c-5.69-0.37-11.44-0.43-17.11,0.01
		c-4.7,0.37-5.55-1.42-5.54-5.72c0.14-48.9,0.09-97.81,0.09-146.71c0-5.71,0.21-11.43-0.08-17.12c-0.19-3.8,0.68-5.47,4.91-5.2
		c5.88,0.37,11.81,0.36,17.69,0c4.14-0.25,5.02,1.25,5,5.15C494.56,408.18,494.64,435.58,494.64,462.98z"/>
	<path class="st4" d="M586.5,462.99c0-27.4,0.07-54.8-0.08-82.2c-0.02-3.89,0.85-5.42,4.99-5.15c5.69,0.36,11.44,0.44,17.11-0.02
		c4.79-0.39,5.51,1.56,5.5,5.78c-0.13,51-0.08,101.99-0.08,152.99c0,3.81-0.2,7.62,0.06,11.41c0.23,3.37-0.66,4.76-4.36,4.57
		c-6.07-0.31-12.19-0.35-18.26,0.01c-4.19,0.25-4.98-1.32-4.96-5.18C586.58,517.79,586.5,490.39,586.5,462.99z"/>
	<path class="st4" d="M706.14,462.77c0-27.38,0.09-54.76-0.1-82.14c-0.03-4.04,1.07-5.21,5.06-4.99c6.07,0.35,12.17,0.24,18.25,0.03
		c3.09-0.11,4.27,0.6,4.26,4.01c-0.1,55.52-0.1,111.04,0,166.56c0.01,3.29-0.96,4.22-4.17,4.1c-6.27-0.24-12.56-0.34-18.82,0.03
		c-4.04,0.24-4.57-1.42-4.55-4.89C706.19,517.91,706.14,490.34,706.14,462.77z"/>
	<path class="st3" d="M361.67,567.42c8.17,0,16.35,0.12,24.52-0.06c3.24-0.07,4.64,0.51,4.69,4.28
		c0.18,13.86,0.34,13.85-13.39,13.85c-13.69,0-27.37-0.08-41.06,0.06c-3.3,0.04-4.63-0.69-4.69-4.37
		c-0.23-13.77-0.38-13.77,13.39-13.77C350.65,567.42,356.16,567.42,361.67,567.42z"/>
	<path class="st3" d="M719.61,585.49c-8.36,0-16.73-0.12-25.09,0.06c-3.24,0.07-4.15-1.01-4.24-4.22
		c-0.38-13.92-0.49-13.91,13.21-13.91c13.69,0,27.37,0.13,41.06-0.08c3.71-0.06,4.83,0.93,4.83,4.73
		c0.02,13.43,0.17,13.43-13.24,13.43C730.64,585.49,725.12,585.49,719.61,585.49z"/>
	<path class="st3" d="M361.21,358.57c-7.98,0-15.96,0-23.93,0c-1.14,0-2.73,0.46-3.35-0.11c-4.59-4.26-1-9.8-2.03-14.68
		c-0.51-2.44,0.94-3.3,3.32-3.29c17.48,0.05,34.95,0.04,52.43,0.01c2.08,0,3.27,0.67,3.12,2.93c-0.04,0.57-0.01,1.14,0,1.71
		c0.32,13.43,0.33,13.43-13.04,13.43C372.23,358.57,366.72,358.57,361.21,358.57z"/>
	<path class="st3" d="M719.78,358.57c-8.36,0-16.72-0.17-25.07,0.08c-3.59,0.11-4.41-1.09-4.44-4.53
		c-0.11-13.6-0.24-13.6,13.04-13.6c13.49,0,26.98,0.13,40.46-0.08c4-0.06,5.69,0.65,5.63,5.21c-0.15,12.92,0.07,12.92-13.1,12.92
		C730.8,358.57,725.29,358.57,719.78,358.57z"/>
	<path class="st3" d="M480.36,358.57c-8.36,0-16.73-0.12-25.09,0.07c-3.01,0.07-3.77-0.87-3.86-3.85
		c-0.4-14.26-0.5-14.26,13.45-14.26c13.5,0,27,0.13,40.49-0.08c3.78-0.06,4.79,1.12,4.81,4.85c0.06,13.28,0.2,13.28-13.26,13.28
		C491.38,358.57,485.87,358.57,480.36,358.57z"/>
	<path class="st3" d="M599.99,358.57c-8.36,0-16.73-0.11-25.09,0.06c-2.98,0.06-3.79-0.9-3.9-3.86
		c-0.51-14.24-0.61-14.24,13.57-14.24c13.31,0,26.62,0.12,39.92-0.08c3.74-0.06,5.31,0.58,5.28,4.86
		c-0.1,13.26,0.1,13.26-13.24,13.26C611.01,358.57,605.5,358.57,599.99,358.57z"/>
	<path class="st3" d="M481.19,567.42c8.18,0,16.36,0.18,24.53-0.08c3.59-0.12,4.4,1.07,4.43,4.5c0.13,13.64,0.25,13.64-13.61,13.64
		c-13.5,0-27.01-0.09-40.51,0.07c-3.3,0.04-4.61-0.6-4.65-4.32c-0.17-13.81-0.32-13.8,13.26-13.8
		C470.16,567.42,475.67,567.42,481.19,567.42z"/>
	<path class="st3" d="M600.98,567.42c8.37,0,16.74,0.09,25.1-0.05c2.64-0.04,3.5,0.68,3.65,3.47c0.74,14.64,0.83,14.64-13.64,14.64
		c-13.5,0-27.01-0.1-40.51,0.07c-3.44,0.04-4.53-0.94-4.59-4.47c-0.25-13.66-0.37-13.66,13.45-13.66
		C589.95,567.42,595.47,567.42,600.98,567.42z"/>
	<path class="st3" d="M763.23,653.1c-0.07-5.44-0.14-10.87-0.21-16.31c15.94-1.15,31.9-0.27,47.85-0.45
		c3.08-0.03,4.72,1.59,5.01,4.93c1.05,12.12,1.14,12.15-11.03,12.1C790.98,653.32,777.11,653.19,763.23,653.1z"/>
	<path class="st4" d="M735.83,323.09c0-5.32,0-10.64,0-15.97c16.71-0.09,33.43-0.17,50.14-0.27c1.79-0.01,3.47-0.02,3.42,2.55
		c-0.08,3.8-0.08,7.6,0,11.4c0.05,2.58-1.64,2.55-3.42,2.54C769.25,323.26,752.54,323.18,735.83,323.09z"/>
	<path class="st4" d="M741.55,618.95c-0.01-5.34-0.01-10.68-0.02-16.03c15.9-0.09,31.8-0.16,47.71-0.27
		c3.27-0.02,4.67,1.49,4.92,4.8c0.89,11.85,0.97,11.89-10.59,11.83C769.56,619.22,755.55,619.07,741.55,618.95z"/>
</g>
</svg>
