<?xml version="1.0" encoding="utf-8"?>
<!-- Generator: Adobe Illustrator 24.0.1, SVG Export Plug-In . SVG Version: 6.00 Build 0)  -->
<svg version="1.1" id="Layer_1" xmlns="http://www.w3.org/2000/svg" xmlns:xlink="http://www.w3.org/1999/xlink" x="0px" y="0px"
	 viewBox="0 0 1080 1080" style="enable-background:new 0 0 1080 1080;" xml:space="preserve">
<style type="text/css">
	.st0{fill:#EEDC92;stroke:#000000;stroke-width:4;stroke-miterlimit:10;}
	.st1{fill:#FFBD11;stroke:#000000;stroke-width:4;stroke-miterlimit:10;}
	.st2{fill:#800000;stroke:#000000;stroke-width:4;stroke-miterlimit:10;}
	.st3{fill:#800000;}
	.st4{fill:#FEFEFE;}
</style>
<g>
	<path class="st0" d="M923.89,510.55c0,19.27,0,38.53,0,57.8c-1.47,1.04-0.92,2.65-1.03,4.01c-1.15,14.68-3.17,29.23-6.12,43.65
		c-16.11,78.83-53.04,146.33-111.21,201.86c-60.17,57.43-131.73,91.66-214.22,102.98c-8.01,1.1-16.17,0.99-24.06,3.05
		c-18.18,0-36.35,0-54.53,0c-0.85-1.36-2.28-0.9-3.46-0.99c-9.05-0.73-18.06-1.79-27.04-3.2
		c-85.84-13.47-159.67-51.03-218.87-114.36C174.78,710.6,140.6,597.81,164.06,470.3c22.66-123.13,92.36-213.83,203.18-271.65
		c77.52-40.44,160.35-50.9,246.09-34.62c81.16,15.41,150.26,53.8,206.81,114.03c56.25,59.91,89.75,130.88,100.81,212.41
		C921.85,497.17,921.41,504.09,923.89,510.55z M486.56,628.6c0.52-0.17,1.04-0.35,1.56-0.52c1.17,1.1,2.37,2.17,3.51,3.3
		c16.03,15.83,32.02,31.7,48.07,47.5c11.13,10.95,24.04,13.53,38.54,7.71c6.48-2.6,12.18-6.47,17.06-11.47
		c28.42-29.12,56.78-58.3,85.29-87.33c2.45-2.5,2.17-3.72-0.12-6c-15.17-15.14-30.28-30.36-45.21-45.74
		c-2.94-3.03-4.56-3.13-7.6-0.04c-20.15,20.45-40.57,40.63-60.77,61.04c-2.53,2.55-3.98,3.23-6.73,0.21
		c-4.4-4.82-9.35-9.13-14.05-13.67c-21.68-20.95-43.28-41.98-65.08-62.8c-6.5-6.21-13.83-11.48-23.4-11.48
		c-37.97-0.03-75.95,0.17-113.92,0.07c-6.09-0.02-11.44,1.55-16.46,4.7c-4.94,3.09-9.57,6.61-13.72,10.71
		c-34.12,33.71-68.25,67.41-102.28,101.21c-15.22,15.11-15.13,39.63,0.07,54.95c28.4,28.64,56.85,57.24,85.28,85.84
		c6.92,6.96,6.94,6.94,14,0.38c0.21-0.19,0.65-0.13,1.46-0.26c0.8,15.22,1.59,30.39,2.38,45.56c0.19,3.63,0.11,7.38,2.5,10.42
		c8.78,11.21,20.06,18.97,34.43,19.23c33.06,0.59,66.14,0.19,99.21,0.19c18.66,0,34.72-15.86,34.89-34.54
		c0.39-44.14,0.77-88.28,1.08-132.42C486.65,659.77,486.56,644.18,486.56,628.6z M401.53,482.69c40.75-0.07,73.89-33.19,73.92-73.85
		c0.02-40.62-33.23-73.84-73.92-73.87c-40.6-0.03-73.73,33.07-73.94,73.88C327.37,449.23,360.95,482.76,401.53,482.69z
		 M692.68,489.06c-4.07,0.2-8,0.83-11.76,2.31c-13.49,5.3-22.4,15.7-30.34,27.2c-1.44,2.09-0.24,3.29,1.13,4.61
		c14.25,13.73,28.56,27.41,42.68,41.28c2.54,2.49,3.95,1.81,6.13-0.26c6.19-5.87,12.51-11.61,18.9-17.26
		c9.73-8.6,12.74-19.34,9.21-31.5c-1.47-5.07-0.62-8.75,1.77-13.1c30.87-56.12,61.54-112.36,92.42-168.47
		c2.95-5.35,2.71-10.38,0.69-15.63c-1.93-5.03-6.08-7.15-11.17-7.18c-4.9-0.03-9.18,0.45-12.12,5.97
		c-30.11,56.53-60.55,112.88-90.74,169.36c-2.15,4.03-3.79,6.5-8.8,3.96C698.39,489.17,695.37,489.44,692.68,489.06z"/>
	<path class="st1" d="M486.56,628.6c0,15.58,0.09,31.17-0.02,46.75c-0.31,44.14-0.69,88.28-1.08,132.42
		c-0.16,18.68-16.23,34.54-34.89,34.54c-33.07,0-66.15,0.41-99.21-0.19c-14.37-0.26-25.64-8.03-34.43-19.23
		c-2.38-3.04-2.31-6.79-2.5-10.42c-0.79-15.17-1.58-30.34-2.38-45.56c-0.81,0.14-1.25,0.07-1.46,0.26c-7.07,6.56-7.08,6.58-14-0.38
		c-28.44-28.61-56.88-57.2-85.28-85.84c-15.2-15.32-15.29-39.84-0.07-54.95c34.03-33.79,68.17-67.49,102.28-101.21
		c4.15-4.1,8.78-7.62,13.72-10.71c5.03-3.15,10.37-4.72,16.46-4.7c37.97,0.1,75.95-0.09,113.92-0.07c9.56,0.01,16.9,5.28,23.4,11.48
		c21.8,20.82,43.4,41.85,65.08,62.8c4.7,4.54,9.66,8.85,14.05,13.67c2.75,3.02,4.21,2.34,6.73-0.21
		c20.2-20.4,40.62-40.59,60.77-61.04c3.05-3.09,4.66-2.99,7.6,0.04c14.93,15.38,30.04,30.6,45.21,45.74c2.29,2.28,2.57,3.5,0.12,6
		c-28.51,29.03-56.87,58.21-85.29,87.33c-4.88,5-10.57,8.87-17.06,11.47c-14.5,5.82-27.41,3.24-38.54-7.71
		c-16.06-15.8-32.05-31.67-48.07-47.5c-1.14-1.13-2.34-2.2-3.51-3.3C487.6,628.25,487.08,628.43,486.56,628.6z M466.73,734.78
		c0-23.97-0.09-47.95,0.09-71.92c0.03-4.03-0.98-5.21-5.12-5.18c-26.88,0.19-53.76,0.18-80.64,0.01c-3.91-0.03-4.78,1.15-4.75,4.88
		c0.17,23.61,0.43,47.23-0.11,70.83c-0.18,7.64,2.19,12.73,7.84,17.64c19.21,16.69,17.1,40.16-4.55,53.11
		c-2.68,1.6-3.53,3.41-3.03,6.13c0.58,3.13,3.19,1.79,4.86,1.79c26.7,0.09,53.4-0.03,80.09,0.16c4.36,0.03,5.44-1.32,5.4-5.53
		C466.63,782.73,466.73,758.75,466.73,734.78z M312.13,627.83c-8.22,8.8-15.41,16.62-22.76,24.29c-2.02,2.11-0.49,3.08,0.77,4.34
		c4.75,4.75,9.43,9.56,14.27,14.21c2.34,2.25,4.18,5.2,7.71,6.56C312.13,661,312.13,645.23,312.13,627.83z"/>
	<path class="st1" d="M401.53,482.69c-40.58,0.07-74.16-33.46-73.95-73.84c0.21-40.82,33.34-73.91,73.94-73.88
		c40.7,0.03,73.94,33.26,73.92,73.87C475.43,449.5,442.28,482.62,401.53,482.69z"/>
	<path class="st1" d="M692.68,489.06c2.69,0.38,5.71,0.1,8,1.27c5.01,2.55,6.65,0.07,8.8-3.96
		c30.19-56.48,60.64-112.83,90.74-169.36c2.94-5.52,7.22-6,12.12-5.97c5.09,0.03,9.24,2.15,11.17,7.18
		c2.02,5.25,2.25,10.28-0.69,15.63c-30.88,56.12-61.55,112.35-92.42,168.47c-2.39,4.35-3.24,8.03-1.77,13.1
		c3.53,12.16,0.52,22.91-9.21,31.5c-6.39,5.65-12.71,11.39-18.9,17.26c-2.19,2.07-3.59,2.76-6.13,0.26
		c-14.13-13.86-28.43-27.55-42.68-41.28c-1.37-1.32-2.57-2.52-1.13-4.61c7.94-11.5,16.85-21.9,30.34-27.2
		C684.68,489.89,688.61,489.26,692.68,489.06z"/>
	<path class="st2" d="M466.73,734.78c0,23.97-0.1,47.95,0.09,71.92c0.03,4.22-1.04,5.56-5.4,5.53c-26.7-0.19-53.39-0.07-80.09-0.16
		c-1.67-0.01-4.28,1.34-4.86-1.79c-0.5-2.72,0.35-4.53,3.03-6.13c21.65-12.95,23.75-36.42,4.55-53.11c-5.65-4.9-8.02-10-7.84-17.64
		c0.54-23.6,0.28-47.22,0.11-70.83c-0.03-3.73,0.84-4.91,4.75-4.88c26.88,0.18,53.76,0.19,80.64-0.01c4.14-0.03,5.15,1.15,5.12,5.18
		C466.64,686.83,466.73,710.81,466.73,734.78z"/>
	<path class="st0" d="M312.13,627.83c0,17.4,0,33.17,0,49.41c-3.54-1.36-5.37-4.31-7.71-6.56c-4.84-4.65-9.52-9.47-14.27-14.21
		c-1.27-1.26-2.79-2.23-0.77-4.34C296.72,644.45,303.91,636.63,312.13,627.83z"/>
</g>
<g>
	<path class="st3" d="M796.2,953c-7.56,0-15.12,0-22.69,0c-0.24-0.81-0.93-0.56-1.48-0.61c-6.43-0.61-12.81-1.56-19.12-2.98
		c-62.47-14.08-110.1-65.27-119.31-128.15c-0.48-3.26-0.24-6.65-1.6-9.76c0-7.96,0-15.92,0-23.88c0.95-0.33,0.54-1.16,0.62-1.77
		c0.45-3.45,0.73-6.92,1.32-10.35c5.46-32,19.11-60.1,42.55-82.51c46.31-44.29,100.76-57.5,161.3-36.03
		c73.71,26.14,113.93,103.61,95.33,179.55c-14.69,60-65.23,106.06-125.97,114.88C803.51,951.92,799.77,951.87,796.2,953z
		 M803.37,850.73c0-10.25,0.07-20.5-0.06-30.74c-0.03-2.14,0.58-2.58,2.63-2.56c10.45,0.11,20.89,0.05,31.34,0.05
		c9.45,0,18.9,0.1,28.35-0.03c12.25-0.17,20.76-11.07,17.68-22.45c-2.21-8.17-9.17-13.32-18.26-13.33
		c-19.7-0.04-39.4-0.04-59.1,0.04c-2.02,0.01-2.67-0.38-2.64-2.55c0.13-9.25,0.06-18.5,0.06-27.76c0-10.65,0.1-21.29-0.03-31.94
		c-0.16-13.07-11.99-21.47-24.08-17.22c-7.14,2.51-11.69,9.27-11.71,17.66c-0.04,19.7-0.06,39.4,0.05,59.1
		c0.01,2.29-0.61,2.75-2.78,2.71c-8.26-0.14-16.51-0.05-24.77-0.05c-11.94,0-23.88-0.09-35.82,0.03c-12.4,0.12-21,11.13-17.8,22.6
		c2.27,8.13,9.23,13.18,18.38,13.19c19.9,0.03,39.8,0.05,59.69-0.05c2.4-0.01,3.12,0.44,3.1,3.01c-0.13,19.9-0.05,39.8-0.08,59.69
		c-0.01,7.1,2.6,12.86,8.78,16.53c12.04,7.16,26.73-1.24,27-15.48C803.52,871.02,803.36,860.87,803.37,850.73z"/>
	<path class="st4" d="M803.37,850.73c0,10.15,0.15,20.3-0.04,30.44c-0.27,14.24-14.96,22.64-27,15.48
		c-6.18-3.68-8.79-9.44-8.78-16.53c0.02-19.9-0.05-39.8,0.08-59.69c0.02-2.56-0.7-3.02-3.1-3.01c-19.9,0.1-39.8,0.08-59.69,0.05
		c-9.15-0.01-16.11-5.06-18.38-13.19c-3.2-11.46,5.39-22.48,17.8-22.6c11.94-0.11,23.88-0.03,35.82-0.03
		c8.26,0,16.52-0.08,24.77,0.05c2.17,0.04,2.8-0.42,2.78-2.71c-0.11-19.7-0.09-39.4-0.05-59.1c0.02-8.38,4.57-15.15,11.71-17.66
		c12.08-4.25,23.92,4.15,24.08,17.22c0.13,10.64,0.03,21.29,0.03,31.94c0,9.25,0.08,18.51-0.06,27.76
		c-0.03,2.16,0.62,2.55,2.64,2.55c19.7-0.08,39.4-0.08,59.1-0.04c9.1,0.02,16.06,5.16,18.26,13.33
		c3.08,11.38-5.43,22.28-17.68,22.45c-9.45,0.13-18.9,0.03-28.35,0.03c-10.45,0-20.89,0.06-31.34-0.05
		c-2.04-0.02-2.66,0.42-2.63,2.56C803.44,830.23,803.37,840.48,803.37,850.73z"/>
</g>
</svg>
